<?xml version="1.0" encoding="UTF-8" standalone="no"?>
<!DOCTYPE svg PUBLIC "-//W3C//DTD SVG 1.1//EN"
 "http://www.w3.org/Graphics/SVG/1.1/DTD/svg11.dtd">
<!-- Generated by graphviz version 9.0.0 (20230911.1827)
 -->
<!-- Title: wrist Pages: 1 -->
<svg width="1160pt" height="476pt"
 viewBox="0.00 0.00 1160.33 476.00" xmlns="http://www.w3.org/2000/svg" xmlns:xlink="http://www.w3.org/1999/xlink">
<g id="graph0" class="graph" transform="scale(1 1) rotate(0) translate(4 472)">
<title>wrist</title>
<polygon fill="white" stroke="none" points="-4,4 -4,-472 1156.33,-472 1156.33,4 -4,4"/>
<!-- FreeRTOS&#45;Kernel -->
<g id="node1" class="node">
<title>FreeRTOS&#45;Kernel</title>
<polygon fill="none" stroke="black" points="1139.72,-23.56 1059.33,-36 978.95,-23.56 1009.65,-3.44 1109.02,-3.44 1139.72,-23.56"/>
<text text-anchor="middle" x="1059.33" y="-13.73" font-family="Times,serif" font-size="12.00">FreeRTOS&#45;Kernel</text>
</g>
<!-- elastic&#45;ai.runtime.c -->
<g id="node2" class="node">
<title>elastic&#45;ai.runtime.c</title>
<polygon fill="none" stroke="black" points="975.49,-311.56 893.33,-324 811.18,-311.56 842.56,-291.44 944.11,-291.44 975.49,-311.56"/>
<text text-anchor="middle" x="893.33" y="-301.73" font-family="Times,serif" font-size="12.00">elastic&#45;ai.runtime.c</text>
</g>
<!-- pico_stdlib -->
<g id="node3" class="node">
<title>pico_stdlib</title>
<polygon fill="none" stroke="black" points="538.6,-23.56 485.33,-36 432.07,-23.56 452.42,-3.44 518.25,-3.44 538.6,-23.56"/>
<text text-anchor="middle" x="485.33" y="-13.73" font-family="Times,serif" font-size="12.00">pico_stdlib</text>
</g>
<!-- sensor_lib_adxl345b -->
<g id="node4" class="node">
<title>sensor_lib_adxl345b</title>
<ellipse fill="none" stroke="black" cx="100.33" cy="-378" rx="72.67" ry="18"/>
<text text-anchor="middle" x="100.33" y="-373.73" font-family="Times,serif" font-size="12.00">sensor_lib_adxl345b</text>
</g>
<!-- i2c_interface -->
<g id="node5" class="node">
<title>i2c_interface</title>
<ellipse fill="none" stroke="black" cx="269.33" cy="-306" rx="48.81" ry="18"/>
<text text-anchor="middle" x="269.33" y="-301.73" font-family="Times,serif" font-size="12.00">i2c_interface</text>
</g>
<!-- sensor_lib_adxl345b&#45;&gt;i2c_interface -->
<g id="edge1" class="edge">
<title>sensor_lib_adxl345b&#45;&gt;i2c_interface</title>
<path fill="none" stroke="black" d="M136.59,-361.98C163.13,-350.99 199.23,-336.04 227.08,-324.5"/>
<polygon fill="black" stroke="black" points="228.39,-327.75 236.29,-320.69 225.71,-321.28 228.39,-327.75"/>
</g>
<!-- i2c_interface&#45;&gt;pico_stdlib -->
<g id="edge16" class="edge">
<title>i2c_interface&#45;&gt;pico_stdlib</title>
<path fill="none" stroke="black" d="M281.88,-288.39C318.48,-239.93 425.2,-98.62 467.64,-42.43"/>
<polygon fill="black" stroke="black" points="470.18,-44.87 473.42,-34.78 464.6,-40.65 470.18,-44.87"/>
</g>
<!-- espBroker_lib -->
<g id="node6" class="node">
<title>espBroker_lib</title>
<ellipse fill="none" stroke="black" cx="846.33" cy="-378" rx="52.63" ry="18"/>
<text text-anchor="middle" x="846.33" y="-373.73" font-family="Times,serif" font-size="12.00">espBroker_lib</text>
</g>
<!-- espBroker_lib&#45;&gt;elastic&#45;ai.runtime.c -->
<g id="edge2" class="edge">
<title>espBroker_lib&#45;&gt;elastic&#45;ai.runtime.c</title>
<path fill="none" stroke="black" d="M857.71,-360.05C863.3,-351.73 870.14,-341.54 876.34,-332.32"/>
<polygon fill="black" stroke="black" points="879.19,-334.34 881.86,-324.09 873.38,-330.44 879.19,-334.34"/>
</g>
<!-- uart_lib -->
<g id="node7" class="node">
<title>uart_lib</title>
<ellipse fill="none" stroke="black" cx="790.33" cy="-90" rx="33.07" ry="18"/>
<text text-anchor="middle" x="790.33" y="-85.72" font-family="Times,serif" font-size="12.00">uart_lib</text>
</g>
<!-- espBroker_lib&#45;&gt;uart_lib -->
<g id="edge3" class="edge">
<title>espBroker_lib&#45;&gt;uart_lib</title>
<path fill="none" stroke="black" d="M823.87,-361.34C812.44,-351.97 799.66,-338.99 793.33,-324 764.33,-255.22 775.58,-164.55 784.12,-119.27"/>
<polygon fill="black" stroke="black" points="787.49,-120.24 786.02,-109.75 780.63,-118.87 787.49,-120.24"/>
</g>
<!-- esp_lib -->
<g id="node8" class="node">
<title>esp_lib</title>
<ellipse fill="none" stroke="black" cx="960.33" cy="-162" rx="31.64" ry="18"/>
<text text-anchor="middle" x="960.33" y="-157.72" font-family="Times,serif" font-size="12.00">esp_lib</text>
</g>
<!-- espBroker_lib&#45;&gt;esp_lib -->
<g id="edge4" class="edge">
<title>espBroker_lib&#45;&gt;esp_lib</title>
<path fill="none" stroke="black" d="M827.78,-360.84C818.19,-351.23 807.45,-338.17 802.33,-324 796.9,-308.95 795.36,-302.4 802.33,-288 827.75,-235.48 887.13,-198.33 925.42,-178.82"/>
<polygon fill="black" stroke="black" points="926.84,-182.02 934.26,-174.46 923.74,-175.75 926.84,-182.02"/>
</g>
<!-- network_lib -->
<g id="node9" class="node">
<title>network_lib</title>
<ellipse fill="none" stroke="black" cx="1040.33" cy="-306" rx="46.43" ry="18"/>
<text text-anchor="middle" x="1040.33" y="-301.73" font-family="Times,serif" font-size="12.00">network_lib</text>
</g>
<!-- espBroker_lib&#45;&gt;network_lib -->
<g id="edge5" class="edge">
<title>espBroker_lib&#45;&gt;network_lib</title>
<path fill="none" stroke="black" d="M881.47,-364.32C913.69,-352.7 961.53,-335.43 996.29,-322.89"/>
<polygon fill="black" stroke="black" points="997.44,-326.2 1005.66,-319.51 995.07,-319.61 997.44,-326.2"/>
</g>
<!-- uart_lib&#45;&gt;pico_stdlib -->
<g id="edge26" class="edge">
<title>uart_lib&#45;&gt;pico_stdlib</title>
<path fill="none" stroke="black" d="M760.26,-82.1C707.37,-69.96 597.33,-44.7 533.67,-30.09"/>
<polygon fill="black" stroke="black" points="534.73,-26.75 524.2,-27.92 533.17,-33.57 534.73,-26.75"/>
</g>
<!-- esp_lib&#45;&gt;uart_lib -->
<g id="edge8" class="edge">
<title>esp_lib&#45;&gt;uart_lib</title>
<path fill="none" stroke="black" d="M935.25,-150.67C906.54,-138.85 859.27,-119.39 826.57,-105.92"/>
<polygon fill="black" stroke="black" points="828.06,-102.75 817.48,-102.18 825.39,-109.22 828.06,-102.75"/>
</g>
<!-- freeRtosUtils -->
<g id="node11" class="node">
<title>freeRtosUtils</title>
<ellipse fill="none" stroke="black" cx="1059.33" cy="-90" rx="49.77" ry="18"/>
<text text-anchor="middle" x="1059.33" y="-85.72" font-family="Times,serif" font-size="12.00">freeRtosUtils</text>
</g>
<!-- esp_lib&#45;&gt;freeRtosUtils -->
<g id="edge7" class="edge">
<title>esp_lib&#45;&gt;freeRtosUtils</title>
<path fill="none" stroke="black" d="M979.42,-147.5C993.33,-137.67 1012.46,-124.15 1028.51,-112.79"/>
<polygon fill="black" stroke="black" points="1030.17,-115.91 1036.31,-107.28 1026.13,-110.19 1030.17,-115.91"/>
</g>
<!-- network_lib&#45;&gt;uart_lib -->
<g id="edge20" class="edge">
<title>network_lib&#45;&gt;uart_lib</title>
<path fill="none" stroke="black" d="M1003.96,-294.43C978.31,-285.79 944.08,-271.75 918.33,-252 868.31,-213.62 826.4,-151.59 805.21,-116.8"/>
<polygon fill="black" stroke="black" points="808.46,-115.42 800.33,-108.63 802.46,-119.01 808.46,-115.42"/>
</g>
<!-- network_lib&#45;&gt;esp_lib -->
<g id="edge21" class="edge">
<title>network_lib&#45;&gt;esp_lib</title>
<path fill="none" stroke="black" d="M1034.6,-287.95C1028.06,-269.54 1016.43,-239.68 1002.33,-216 996.43,-206.07 988.85,-195.95 981.77,-187.24"/>
<polygon fill="black" stroke="black" points="984.46,-185 975.35,-179.59 979.1,-189.5 984.46,-185"/>
</g>
<!-- network_lib&#45;&gt;freeRtosUtils -->
<g id="edge19" class="edge">
<title>network_lib&#45;&gt;freeRtosUtils</title>
<path fill="none" stroke="black" d="M1041.86,-287.85C1045.12,-251.14 1052.8,-164.66 1056.8,-119.53"/>
<polygon fill="black" stroke="black" points="1060.27,-120.01 1057.67,-109.74 1053.3,-119.39 1060.27,-120.01"/>
</g>
<!-- http_lib -->
<g id="node15" class="node">
<title>http_lib</title>
<ellipse fill="none" stroke="black" cx="960.33" cy="-234" rx="33.07" ry="18"/>
<text text-anchor="middle" x="960.33" y="-229.72" font-family="Times,serif" font-size="12.00">http_lib</text>
</g>
<!-- network_lib&#45;&gt;http_lib -->
<g id="edge22" class="edge">
<title>network_lib&#45;&gt;http_lib</title>
<path fill="none" stroke="black" d="M1022.18,-289.12C1011.45,-279.73 997.7,-267.7 985.89,-257.36"/>
<polygon fill="black" stroke="black" points="988.29,-254.81 978.46,-250.86 983.68,-260.08 988.29,-254.81"/>
</g>
<!-- env5_lib -->
<g id="node10" class="node">
<title>env5_lib</title>
<ellipse fill="none" stroke="black" cx="149.33" cy="-162" rx="36.41" ry="18"/>
<text text-anchor="middle" x="149.33" y="-157.72" font-family="Times,serif" font-size="12.00">env5_lib</text>
</g>
<!-- env5_lib&#45;&gt;pico_stdlib -->
<g id="edge6" class="edge">
<title>env5_lib&#45;&gt;pico_stdlib</title>
<path fill="none" stroke="black" d="M171.97,-147.64C204.16,-129.01 265.36,-94.94 320.33,-72 359.75,-55.55 406.19,-41.05 439.74,-31.39"/>
<polygon fill="black" stroke="black" points="440.48,-34.82 449.14,-28.72 438.56,-28.09 440.48,-34.82"/>
</g>
<!-- freeRtosUtils&#45;&gt;FreeRTOS&#45;Kernel -->
<g id="edge14" class="edge">
<title>freeRtosUtils&#45;&gt;FreeRTOS&#45;Kernel</title>
<path fill="none" stroke="black" d="M1059.33,-71.7C1059.33,-64.41 1059.33,-55.73 1059.33,-47.54"/>
<polygon fill="black" stroke="black" points="1062.84,-47.62 1059.33,-37.62 1055.84,-47.62 1062.84,-47.62"/>
</g>
<!-- flash_lib -->
<g id="node12" class="node">
<title>flash_lib</title>
<ellipse fill="none" stroke="black" cx="567.33" cy="-306" rx="35.94" ry="18"/>
<text text-anchor="middle" x="567.33" y="-301.73" font-family="Times,serif" font-size="12.00">flash_lib</text>
</g>
<!-- spi_lib -->
<g id="node13" class="node">
<title>spi_lib</title>
<ellipse fill="none" stroke="black" cx="427.33" cy="-234" rx="30.21" ry="18"/>
<text text-anchor="middle" x="427.33" y="-229.72" font-family="Times,serif" font-size="12.00">spi_lib</text>
</g>
<!-- flash_lib&#45;&gt;spi_lib -->
<g id="edge9" class="edge">
<title>flash_lib&#45;&gt;spi_lib</title>
<path fill="none" stroke="black" d="M542.63,-292.65C519.69,-281.18 485.37,-264.02 460.14,-251.4"/>
<polygon fill="black" stroke="black" points="461.81,-248.32 451.3,-246.98 458.68,-254.58 461.81,-248.32"/>
</g>
<!-- spi_lib&#45;&gt;pico_stdlib -->
<g id="edge25" class="edge">
<title>spi_lib&#45;&gt;pico_stdlib</title>
<path fill="none" stroke="black" d="M431.98,-215.85C442.03,-178.79 465.82,-91 477.95,-46.25"/>
<polygon fill="black" stroke="black" points="481.27,-47.38 480.51,-36.81 474.51,-45.54 481.27,-47.38"/>
</g>
<!-- fpga_config_lib -->
<g id="node14" class="node">
<title>fpga_config_lib</title>
<ellipse fill="none" stroke="black" cx="717.33" cy="-378" rx="57.88" ry="18"/>
<text text-anchor="middle" x="717.33" y="-373.73" font-family="Times,serif" font-size="12.00">fpga_config_lib</text>
</g>
<!-- fpga_config_lib&#45;&gt;pico_stdlib -->
<g id="edge13" class="edge">
<title>fpga_config_lib&#45;&gt;pico_stdlib</title>
<path fill="none" stroke="black" d="M707.62,-360.14C693.6,-334.15 669.33,-282.36 669.33,-235 669.33,-235 669.33,-235 669.33,-161 669.33,-120.03 673.47,-101.78 645.33,-72 620.7,-45.94 582.99,-32.68 550.36,-25.94"/>
<polygon fill="black" stroke="black" points="551.02,-22.51 540.55,-24.1 549.73,-29.39 551.02,-22.51"/>
</g>
<!-- fpga_config_lib&#45;&gt;network_lib -->
<g id="edge11" class="edge">
<title>fpga_config_lib&#45;&gt;network_lib</title>
<path fill="none" stroke="black" d="M760.48,-365.58C768.39,-363.62 776.59,-361.68 784.33,-360 872.61,-340.88 896.53,-345.15 984.33,-324 987.68,-323.19 991.13,-322.3 994.58,-321.36"/>
<polygon fill="black" stroke="black" points="995.44,-324.76 1004.1,-318.66 993.52,-318.03 995.44,-324.76"/>
</g>
<!-- fpga_config_lib&#45;&gt;flash_lib -->
<g id="edge10" class="edge">
<title>fpga_config_lib&#45;&gt;flash_lib</title>
<path fill="none" stroke="black" d="M686.25,-362.5C662.08,-351.21 628.5,-335.54 603.19,-323.73"/>
<polygon fill="black" stroke="black" points="604.81,-320.63 594.27,-319.57 601.85,-326.97 604.81,-320.63"/>
</g>
<!-- fpga_config_lib&#45;&gt;http_lib -->
<g id="edge12" class="edge">
<title>fpga_config_lib&#45;&gt;http_lib</title>
<path fill="none" stroke="black" d="M729.29,-360.21C744.25,-340.33 771.68,-307.48 802.33,-288 838.16,-265.24 884.81,-251.16 918.12,-243.29"/>
<polygon fill="black" stroke="black" points="918.84,-246.71 927.83,-241.09 917.3,-239.88 918.84,-246.71"/>
</g>
<!-- http_lib&#45;&gt;esp_lib -->
<g id="edge15" class="edge">
<title>http_lib&#45;&gt;esp_lib</title>
<path fill="none" stroke="black" d="M960.33,-215.7C960.33,-208.41 960.33,-199.73 960.33,-191.54"/>
<polygon fill="black" stroke="black" points="963.84,-191.62 960.33,-181.62 956.84,-191.62 963.84,-191.62"/>
</g>
<!-- middleware_lib -->
<g id="node16" class="node">
<title>middleware_lib</title>
<ellipse fill="none" stroke="black" cx="456.33" cy="-306" rx="56.92" ry="18"/>
<text text-anchor="middle" x="456.33" y="-301.73" font-family="Times,serif" font-size="12.00">middleware_lib</text>
</g>
<!-- middleware_lib&#45;&gt;pico_stdlib -->
<g id="edge17" class="edge">
<title>middleware_lib&#45;&gt;pico_stdlib</title>
<path fill="none" stroke="black" d="M460.04,-287.89C462.16,-277.54 464.71,-264.06 466.33,-252 476.22,-178.65 481.66,-91.57 483.98,-47.54"/>
<polygon fill="black" stroke="black" points="487.46,-47.99 484.47,-37.82 480.47,-47.63 487.46,-47.99"/>
</g>
<!-- middleware_lib&#45;&gt;spi_lib -->
<g id="edge18" class="edge">
<title>middleware_lib&#45;&gt;spi_lib</title>
<path fill="none" stroke="black" d="M449.17,-287.7C445.96,-279.95 442.1,-270.64 438.53,-262.02"/>
<polygon fill="black" stroke="black" points="441.86,-260.92 434.8,-253.02 435.39,-263.6 441.86,-260.92"/>
</g>
<!-- sensor_lib_pac193x -->
<g id="node17" class="node">
<title>sensor_lib_pac193x</title>
<ellipse fill="none" stroke="black" cx="261.33" cy="-378" rx="70.28" ry="18"/>
<text text-anchor="middle" x="261.33" y="-373.73" font-family="Times,serif" font-size="12.00">sensor_lib_pac193x</text>
</g>
<!-- sensor_lib_pac193x&#45;&gt;i2c_interface -->
<g id="edge23" class="edge">
<title>sensor_lib_pac193x&#45;&gt;i2c_interface</title>
<path fill="none" stroke="black" d="M263.31,-359.7C264.15,-352.41 265.14,-343.73 266.07,-335.54"/>
<polygon fill="black" stroke="black" points="269.55,-335.94 267.21,-325.61 262.6,-335.15 269.55,-335.94"/>
</g>
<!-- sensor_lib_sht3x -->
<g id="node18" class="node">
<title>sensor_lib_sht3x</title>
<ellipse fill="none" stroke="black" cx="410.33" cy="-378" rx="60.74" ry="18"/>
<text text-anchor="middle" x="410.33" y="-373.73" font-family="Times,serif" font-size="12.00">sensor_lib_sht3x</text>
</g>
<!-- sensor_lib_sht3x&#45;&gt;i2c_interface -->
<g id="edge24" class="edge">
<title>sensor_lib_sht3x&#45;&gt;i2c_interface</title>
<path fill="none" stroke="black" d="M380.09,-361.98C358.9,-351.46 330.41,-337.32 307.63,-326.01"/>
<polygon fill="black" stroke="black" points="309.48,-323.02 298.97,-321.71 306.37,-329.29 309.48,-323.02"/>
</g>
<!-- wrist -->
<g id="node19" class="node">
<title>wrist</title>
<ellipse fill="none" stroke="black" cx="612.33" cy="-450" rx="27" ry="18"/>
<text text-anchor="middle" x="612.33" y="-445.73" font-family="Times,serif" font-size="12.00">wrist</text>
</g>
<!-- wrist&#45;&gt;pico_stdlib -->
<g id="edge27" class="edge">
<title>wrist&#45;&gt;pico_stdlib</title>
<path fill="none" stroke="black" d="M616.09,-432.05C621.63,-405.52 631.33,-352.52 631.33,-307 631.33,-307 631.33,-307 631.33,-161 631.33,-100.08 565.2,-56.84 521.96,-35.08"/>
<polygon fill="black" stroke="black" points="523.66,-32.01 513.14,-30.8 520.6,-38.31 523.66,-32.01"/>
</g>
<!-- wrist&#45;&gt;sensor_lib_adxl345b -->
<g id="edge37" class="edge">
<title>wrist&#45;&gt;sensor_lib_adxl345b</title>
<path fill="none" stroke="black" d="M585.56,-446.47C517.79,-439.9 334.1,-421.04 182.33,-396 176.42,-395.02 170.28,-393.92 164.14,-392.76"/>
<polygon fill="black" stroke="black" points="165.12,-389.38 154.63,-390.9 163.78,-396.25 165.12,-389.38"/>
</g>
<!-- wrist&#45;&gt;espBroker_lib -->
<g id="edge31" class="edge">
<title>wrist&#45;&gt;espBroker_lib</title>
<path fill="none" stroke="black" d="M636.5,-441.77C674.17,-430.5 747.67,-408.51 796.9,-393.79"/>
<polygon fill="black" stroke="black" points="797.6,-397.23 806.18,-391.01 795.59,-390.53 797.6,-397.23"/>
</g>
<!-- wrist&#45;&gt;network_lib -->
<g id="edge30" class="edge">
<title>wrist&#45;&gt;network_lib</title>
<path fill="none" stroke="black" d="M639.5,-447.88C692.89,-444.87 814.48,-434.06 908.33,-396 948.03,-379.91 988.04,-350.68 1013.43,-330.12"/>
<polygon fill="black" stroke="black" points="1015.44,-333.01 1020.93,-323.94 1010.99,-327.6 1015.44,-333.01"/>
</g>
<!-- wrist&#45;&gt;env5_lib -->
<g id="edge38" class="edge">
<title>wrist&#45;&gt;env5_lib</title>
<path fill="none" stroke="black" d="M584.99,-448.68C473.45,-447.08 57.03,-438.3 18.33,-396 -42.96,-329 65.99,-228.29 120.73,-184.55"/>
<polygon fill="black" stroke="black" points="122.76,-187.42 128.46,-178.49 118.43,-181.91 122.76,-187.42"/>
</g>
<!-- wrist&#45;&gt;freeRtosUtils -->
<g id="edge29" class="edge">
<title>wrist&#45;&gt;freeRtosUtils</title>
<path fill="none" stroke="black" d="M639.48,-447.79C748.99,-442.18 1152.33,-414.24 1152.33,-307 1152.33,-307 1152.33,-307 1152.33,-233 1152.33,-184.87 1114.48,-140.35 1087.07,-114.43"/>
<polygon fill="black" stroke="black" points="1089.46,-111.87 1079.72,-107.71 1084.74,-117.04 1089.46,-111.87"/>
</g>
<!-- wrist&#45;&gt;flash_lib -->
<g id="edge33" class="edge">
<title>wrist&#45;&gt;flash_lib</title>
<path fill="none" stroke="black" d="M606.91,-431.87C599.31,-407.88 585.4,-363.99 576.26,-335.16"/>
<polygon fill="black" stroke="black" points="579.6,-334.11 573.24,-325.63 572.92,-336.22 579.6,-334.11"/>
</g>
<!-- wrist&#45;&gt;spi_lib -->
<g id="edge34" class="edge">
<title>wrist&#45;&gt;spi_lib</title>
<path fill="none" stroke="black" d="M590.32,-439.2C571.63,-428.68 544.99,-411.4 522.33,-396 499.39,-380.4 495.72,-373.24 471.33,-360 433.48,-339.44 405.49,-359.67 381.33,-324 366.94,-302.73 383.1,-274.97 400.3,-256.15"/>
<polygon fill="black" stroke="black" points="402.57,-258.84 407.11,-249.27 397.59,-253.92 402.57,-258.84"/>
</g>
<!-- wrist&#45;&gt;spi_lib -->
<g id="edge36" class="edge">
<title>wrist&#45;&gt;spi_lib</title>
<path fill="none" stroke="black" d="M597.34,-434.59C582.51,-424.05 559.93,-409.32 540.33,-396 517.39,-380.4 513.72,-373.24 489.33,-360 451.48,-339.44 423.49,-359.67 399.33,-324 386.05,-304.39 398.78,-279.25 411.28,-260.7"/>
<polygon fill="black" stroke="black" points="414.06,-262.82 416.98,-252.64 408.35,-258.78 414.06,-262.82"/>
</g>
<!-- wrist&#45;&gt;fpga_config_lib -->
<g id="edge32" class="edge">
<title>wrist&#45;&gt;fpga_config_lib</title>
<path fill="none" stroke="black" d="M631.11,-436.49C645.84,-426.66 666.72,-412.75 684.24,-401.06"/>
<polygon fill="black" stroke="black" points="685.93,-404.14 692.31,-395.69 682.04,-398.32 685.93,-404.14"/>
</g>
<!-- wrist&#45;&gt;http_lib -->
<g id="edge28" class="edge">
<title>wrist&#45;&gt;http_lib</title>
<path fill="none" stroke="black" d="M639.62,-447.71C698.46,-444.3 841.15,-432.62 954.33,-396 1021.28,-374.34 1058.6,-384.01 1095.33,-324 1103.69,-310.35 1104.35,-301.22 1095.33,-288 1075.06,-258.26 1035.34,-245.21 1004.2,-239.48"/>
<polygon fill="black" stroke="black" points="1005.1,-236.08 994.67,-237.93 1003.98,-242.99 1005.1,-236.08"/>
</g>
<!-- wrist&#45;&gt;middleware_lib -->
<g id="edge35" class="edge">
<title>wrist&#45;&gt;middleware_lib</title>
<path fill="none" stroke="black" d="M600.06,-433.58C584.93,-415.05 557.95,-383.52 531.33,-360 518.65,-348.78 503.57,-337.75 490.28,-328.68"/>
<polygon fill="black" stroke="black" points="492.49,-325.95 482.24,-323.29 488.6,-331.76 492.49,-325.95"/>
</g>
</g>
</svg>
